<svg class="svg-icon" style="width: 1em; height: 1em;vertical-align: middle;fill: currentColor;overflow: hidden;" viewBox="0 0 1024 1024" version="1.1" xmlns="http://www.w3.org/2000/svg"><path d="M938.666667 768l-256 0c-12.8 0-25.6-4.266667-34.133333-17.066667L320 341.333333 42.666667 341.333333C17.066667 341.333333 0 324.266667 0 298.666667s17.066667-42.666667 42.666667-42.666667l298.666667 0c12.8 0 25.6 4.266667 34.133333 17.066667l328.533333 409.6L938.666667 682.666667c25.6 0 42.666667 17.066667 42.666667 42.666667S964.266667 768 938.666667 768z"  /><path d="M981.333333 768c-12.8 0-21.333333-4.266667-29.866667-12.8l-128-128c-17.066667-17.066667-17.066667-42.666667 0-59.733333s42.666667-17.066667 59.733333 0l128 128c17.066667 17.066667 17.066667 42.666667 0 59.733333C1002.666667 763.733333 994.133333 768 981.333333 768z"  /><path d="M853.333333 896c-12.8 0-21.333333-4.266667-29.866667-12.8-17.066667-17.066667-17.066667-42.666667 0-59.733333l128-128c17.066667-17.066667 42.666667-17.066667 59.733333 0s17.066667 42.666667 0 59.733333l-128 128C874.666667 891.733333 866.133333 896 853.333333 896z"  /><path d="M341.333333 768 42.666667 768c-25.6 0-42.666667-17.066667-42.666667-42.666667s17.066667-42.666667 42.666667-42.666667l277.333333 0 328.533333-409.6C657.066667 260.266667 669.866667 256 682.666667 256l256 0c25.6 0 42.666667 17.066667 42.666667 42.666667s-17.066667 42.666667-42.666667 42.666667l-234.666667 0-328.533333 409.6C366.933333 763.733333 354.133333 768 341.333333 768z"  /><path d="M853.333333 469.333333c-12.8 0-21.333333-4.266667-29.866667-12.8-17.066667-17.066667-17.066667-42.666667 0-59.733333l128-128c17.066667-17.066667 42.666667-17.066667 59.733333 0s17.066667 42.666667 0 59.733333l-128 128C874.666667 465.066667 866.133333 469.333333 853.333333 469.333333z"  /><path d="M981.333333 341.333333c-12.8 0-21.333333-4.266667-29.866667-12.8l-128-128c-17.066667-17.066667-17.066667-42.666667 0-59.733333s42.666667-17.066667 59.733333 0l128 128c17.066667 17.066667 17.066667 42.666667 0 59.733333C1002.666667 337.066667 994.133333 341.333333 981.333333 341.333333z"  /></svg>